<svg width="54" height="50" viewBox="0 0 54 50" fill="none" xmlns="http://www.w3.org/2000/svg">
<path d="M52.5144 20.9626L44.2727 29.2043L39.5691 24.4922L43.124 20.9626C43.4069 20.6321 43.3878 20.1398 43.0801 19.8321C42.7727 19.5248 42.2805 19.5057 41.95 19.7886L38.3871 23.3101L36.0391 20.9541L44.2727 12.7123C44.5955 12.3876 44.5955 11.8632 44.2727 11.5384C43.9479 11.2156 43.4235 11.2156 43.0988 11.5384L34.266 20.3715C34.1083 20.5276 34.0197 20.7406 34.0197 20.9626C34.0197 21.1845 34.1083 21.3971 34.266 21.5536L35.4481 22.7272L34.266 23.9097C32.8685 22.5109 30.6799 22.2882 29.0295 23.3768L28.3803 22.7272C27.6003 21.9492 26.5434 21.5122 25.4414 21.5118C24.9207 21.5118 24.404 21.6077 23.9178 21.7951L22.4943 20.3715L23.0853 19.7886C23.243 19.6321 23.3317 19.4195 23.3317 19.1976C23.3317 18.9756 23.243 18.7626 23.0853 18.6065L14.8188 10.3648C14.4924 10.0404 13.9648 10.0425 13.6408 10.3689C13.3164 10.6953 13.3184 11.2225 13.6449 11.5469L21.2955 19.1976L20.7045 19.7801L16.542 23.9011L13.6034 20.9541C13.4469 20.7963 13.2343 20.7077 13.0123 20.7077C12.7904 20.7077 12.5774 20.7963 12.4213 20.9541C12.0981 21.2788 12.0981 21.8032 12.4213 22.128L15.368 25.0751L14.1859 26.2487L13.0786 27.4726L5.42794 19.7886C5.27185 19.6309 5.05884 19.5423 4.8369 19.5423C4.61495 19.5423 4.40235 19.6309 4.24585 19.7886C3.92309 20.1134 3.92309 20.6378 4.24585 20.9626L12.4876 29.2043C12.6449 29.36 12.8575 29.447 13.0786 29.4458C13.3001 29.447 13.5127 29.36 13.6701 29.2043L14.8188 28.0303L15.9924 29.2043C14.3676 30.8299 14.3676 33.4644 15.9924 35.09L17.5578 36.6302C17.7139 36.7879 17.9269 36.8765 18.1488 36.8765C18.3708 36.8765 18.5834 36.7879 18.7399 36.6302C19.0626 36.3054 19.0626 35.781 18.7399 35.4562L17.1997 33.9164C16.7293 33.4477 16.4651 32.8111 16.4651 32.1473C16.4651 31.4831 16.7293 30.8465 17.1997 30.3783L17.7826 29.7953L23.6764 23.9011C24.6658 22.9625 26.217 22.9625 27.2064 23.9011L32.501 29.1958C32.7839 29.5262 32.7648 30.0185 32.4575 30.3262C32.1498 30.6335 31.6575 30.6526 31.3274 30.3697L27.4893 26.532C27.1609 26.2056 26.6296 26.2072 26.3031 26.5361C25.9767 26.8649 25.9784 27.3958 26.3072 27.7222L30.1449 31.5603C30.8587 32.2794 31.936 32.4965 32.8721 32.1095C33.8087 31.7225 34.4184 30.8083 34.416 29.7953C34.4152 29.1332 34.1518 28.4982 33.6831 28.0303L30.2535 24.6003C31.2096 24.167 32.3331 24.358 33.092 25.0832L40.1602 32.1514C40.6256 32.6205 40.8862 33.2554 40.8846 33.9164C40.8862 34.5774 40.6256 35.2119 40.1602 35.681L37.8041 38.0371L35.39 40.4431L33.6831 42.1581L28.9714 46.8698C28.6466 47.1926 28.1222 47.1926 27.7974 46.8698C27.4747 46.5454 27.4747 46.021 27.7974 45.6963L33.1339 40.3846C33.3713 40.1813 33.475 39.8618 33.4018 39.5578C33.3286 39.2537 33.0912 39.0163 32.7872 38.9431C32.4827 38.87 32.1636 38.9732 31.9599 39.211L26.6568 44.5056C26.3267 44.7885 25.8345 44.7694 25.5267 44.4621C25.2194 44.1544 25.2003 43.6621 25.4832 43.3317L30.7779 38.0371C30.9356 37.881 31.0242 37.668 31.0242 37.446C31.0242 37.2241 30.9356 37.0115 30.7779 36.855C30.4531 36.5322 29.9287 36.5322 29.6039 36.855L24.3007 42.1581C23.9764 42.4809 23.452 42.4809 23.1272 42.1581C22.9695 42.0016 22.8809 41.789 22.8809 41.5671C22.8809 41.3451 22.9695 41.1321 23.1272 40.976L28.4218 35.681C28.5795 35.5249 28.6681 35.3119 28.6681 35.09C28.6681 34.868 28.5795 34.6554 28.4218 34.4989C28.097 34.1761 27.5726 34.1761 27.2478 34.4989L21.9451 39.8021C21.6187 40.126 21.0911 40.1244 20.7671 39.798C20.4427 39.4716 20.4447 38.9439 20.7711 38.62L27.173 32.2262C27.4995 31.8998 27.4995 31.3705 27.173 31.0441C26.8466 30.7177 26.3174 30.7177 25.991 31.0441L19.5557 37.4627C18.5818 38.4379 18.5818 40.0175 19.5557 40.9927C19.9858 41.4317 20.565 41.6935 21.1789 41.7252C21.2532 42.9926 22.267 44.0028 23.5349 44.0727C23.6052 45.3438 24.6203 46.3584 25.891 46.4288C25.9149 47.0548 26.1735 47.6495 26.6153 48.0938C27.3657 48.8425 28.5072 49.0364 29.4624 48.5767L30.1449 49.2677C30.8461 49.9693 31.8965 50.1897 32.8209 49.8287C33.7449 49.4677 34.3676 48.5942 34.4075 47.6027C35.0347 47.5836 35.631 47.3243 36.0725 46.8783C36.505 46.4442 36.7627 45.8666 36.7968 45.2548C38.068 45.1849 39.0826 44.1699 39.1529 42.8987C40.1443 42.8593 41.0179 42.2362 41.3789 41.3122C41.7402 40.3878 41.5199 39.3378 40.8179 38.6366L40.2269 38.0537L41.4089 36.8716C42.187 36.0916 42.624 35.0347 42.6244 33.9327C42.6049 33.1087 42.341 32.3091 41.8667 31.6351L43.124 30.3783L43.715 30.9693C44.0398 31.2921 44.5642 31.2921 44.889 30.9693L53.6965 22.1361C54.0193 21.8118 54.0193 21.287 53.6965 20.9626C53.5404 20.8049 53.3274 20.7163 53.1055 20.7163C52.8835 20.7163 52.6709 20.8049 52.5144 20.9626ZM16.0176 26.8482L21.3207 21.5536L22.4943 22.7272L17.1997 28.0303L16.0176 26.8482ZM32.501 48.0438C32.1762 48.3665 31.6518 48.3665 31.3274 48.0438L30.7364 47.4527L31.9185 46.2788L32.501 46.8617C32.6587 47.0178 32.7473 47.2308 32.7473 47.4527C32.7473 47.6747 32.6587 47.8877 32.501 48.0438ZM34.857 45.6877C34.5323 46.0105 34.0079 46.0105 33.6831 45.6877L33.1339 45.0967L33.725 44.5056L34.3075 43.9227L34.8989 44.5056C35.0562 44.6621 35.1448 44.8747 35.1448 45.0967C35.1448 45.3186 35.0562 45.5316 34.8989 45.6877H34.857ZM37.2131 43.3317C36.8883 43.6544 36.3639 43.6544 36.0391 43.3317L35.4481 42.7406L36.622 41.5671L37.2131 42.1581C37.5359 42.4829 37.5359 43.0073 37.2131 43.3317ZM39.5691 40.976C39.4126 41.1333 39.2 41.2219 38.9781 41.2219C38.7562 41.2219 38.5431 41.1333 38.3871 40.976L37.8041 40.3846L38.9614 39.211L39.5525 39.8021C39.8797 40.122 39.8874 40.6468 39.5691 40.976ZM40.7427 30.3783L35.4481 25.0832L36.622 23.9097L41.9252 29.2043L40.7427 30.3783Z" fill="#FFBB01"/>
<path d="M15.8139 13.3201H34.129C34.5888 13.3201 34.9615 12.9473 34.9615 12.4876V0.832504C34.9615 0.372757 34.5888 0 34.129 0H15.8139C15.3542 0 14.9814 0.372757 14.9814 0.832504V12.4876C14.9814 12.9473 15.3542 13.3201 15.8139 13.3201ZM16.6465 9.99005C17.5659 9.99005 18.3115 10.7356 18.3115 11.6551H16.6465V9.99005ZM33.2965 11.6551H31.6315C31.6315 10.7356 32.377 9.99005 33.2965 9.99005V11.6551ZM33.2965 3.33002C32.377 3.33002 31.6315 2.5845 31.6315 1.66501H33.2965V3.33002ZM33.2965 4.99502V8.32504C31.4571 8.32504 29.9665 9.81607 29.9665 11.6551H19.9765C19.9765 9.81607 18.4854 8.32504 16.6465 8.32504V4.99502C18.4854 4.99502 19.9765 3.504 19.9765 1.66501H29.9665C29.9665 3.504 31.4571 4.99502 33.2965 4.99502ZM16.6465 1.66501H18.3115C18.3115 2.5845 17.5659 3.33002 16.6465 3.33002V1.66501Z" fill="#FFBB01"/>
<path d="M24.9713 9.99005C26.8102 9.99005 28.3013 8.49902 28.3013 6.66003C28.3013 4.82104 26.8102 3.33002 24.9713 3.33002C23.1319 3.33002 21.6412 4.82104 21.6412 6.66003C21.6412 8.49902 23.1319 9.99005 24.9713 9.99005ZM24.9713 4.99503C25.8907 4.99503 26.6363 5.74054 26.6363 6.66003C26.6363 7.57953 25.8907 8.32504 24.9713 8.32504C24.0518 8.32504 23.3062 7.57953 23.3062 6.66003C23.3062 5.74054 24.0518 4.99503 24.9713 4.99503Z" fill="#FFBB01"/>
<path d="M31.6313 6.66002C31.6313 7.11977 31.2586 7.49252 30.7988 7.49252C30.3391 7.49252 29.9663 7.11977 29.9663 6.66002C29.9663 6.20027 30.3391 5.82751 30.7988 5.82751C31.2586 5.82751 31.6313 6.20027 31.6313 6.66002Z" fill="#FFBB01"/>
<path d="M19.9763 6.66002C19.9763 7.11977 19.6035 7.49252 19.1438 7.49252C18.684 7.49252 18.3113 7.11977 18.3113 6.66002C18.3113 6.20027 18.684 5.82751 19.1438 5.82751C19.6035 5.82751 19.9763 6.20027 19.9763 6.66002Z" fill="#FFBB01"/>
<path d="M49.805 5.36978L46.475 0.374755C46.3202 0.144272 46.0612 0.00646973 45.784 0.00646973C45.5068 0.00646973 45.2474 0.144272 45.0929 0.374755L41.7629 5.36978C41.6719 5.50514 41.6227 5.66449 41.6215 5.82749V9.15751C41.6215 9.61726 41.9942 9.99001 42.454 9.99001C42.9137 9.99001 43.2865 9.61726 43.2865 9.15751V6.07708L45.784 2.33081L48.2815 6.07708V14.985C48.2815 15.4448 48.6543 15.8175 49.114 15.8175C49.5738 15.8175 49.9465 15.4448 49.9465 14.985V5.82749C49.9453 5.66449 49.8961 5.50514 49.805 5.36978Z" fill="#FFBB01"/>
<path d="M46.6166 11.655V6.66002C46.6166 6.20027 46.2438 5.82751 45.784 5.82751C45.3243 5.82751 44.9515 6.20027 44.9515 6.66002V11.655C44.9515 12.1148 45.3243 12.4875 45.784 12.4875C46.2438 12.4875 46.6166 12.1148 46.6166 11.655Z" fill="#FFBB01"/>
<path d="M0.828736 7.49256H1.66124V17.4826C1.66124 17.9424 2.034 18.3151 2.49374 18.3151C2.95349 18.3151 3.32625 17.9424 3.32625 17.4826V6.66006C3.32625 6.20031 2.95349 5.82755 2.49374 5.82755H2.44375L4.99126 2.26462L7.53877 5.82755H7.48877C7.02902 5.82755 6.65626 6.20031 6.65626 6.66006V8.32507C6.65626 8.78481 7.02902 9.15757 7.48877 9.15757C7.94852 9.15757 8.32127 8.78481 8.32127 8.32507V7.49256H9.15378C9.46475 7.49094 9.74889 7.31655 9.89075 7.03972C10.0326 6.76331 10.0082 6.43039 9.82815 6.17714L5.66563 0.349612C5.50873 0.133356 5.25832 0.00531006 4.99126 0.00531006C4.72419 0.00531006 4.47338 0.133356 4.31688 0.349612L0.154359 6.17714C-0.0261248 6.43039 -0.0501081 6.76331 0.0917591 7.03972C0.233626 7.31655 0.517767 7.49094 0.828736 7.49256Z" fill="#FFBB01"/>
<path d="M4.99121 11.6551V14.1526C4.99121 14.6123 5.36397 14.9851 5.82372 14.9851C6.28346 14.9851 6.65622 14.6123 6.65622 14.1526V11.6551C6.65622 11.1953 6.28346 10.8226 5.82372 10.8226C5.36397 10.8226 4.99121 11.1953 4.99121 11.6551Z" fill="#FFBB01"/>
</svg>
